<svg id="Layer_1" data-name="Layer 1" xmlns="http://www.w3.org/2000/svg" viewBox="0 0 307.26 307.26"><defs><style>.cls-1,.cls-2{fill:#fff;}.cls-1{stroke:#000;}</style></defs><circle class="cls-1" cx="153.63" cy="153.63" r="153.13"/><path d="M96.15,25.32c32.33.47,63.33,3,91.89,17.67C208,53.26,223.46,67.52,228,90.71a73.65,73.65,0,0,1,1,13.78c.07,36.53.16,73.06,0,109.59-.16,38.06-26.68,65.68-64.74,67.78-32.79,1.81-65.41-26.47-67.7-59.37-1-13.8-.64-27.7-.61-41.56,0-4.32-.75-6.35-5.73-7.39C77.84,171,69.11,159.29,69.3,147.24s8.76-23.15,20.85-25.66c4.95-1,5.77-3,5.75-7.36-.15-27.29-.08-54.58-.06-81.87C95.84,30.2,96,28.05,96.15,25.32Zm113.82,97c-1.23,8.93-1.74,17.08-3.57,24.92-2.63,11.32-8.85,16.09-19.84,16.77-9.58.59-17.49-3.86-20.94-13.74-2.55-7.34-3-15.41-4.67-23.08-.41-1.88-2.12-5-3.28-5-16.46-.33-32.93-.23-49.8-.23v90.44h109v-90.1Zm-101.85-19.2L213,90.49c-2.34-10.5-3.28-11.3-12.87-10.14q-41.56,5-83.09,10.19C106.76,91.8,106.77,91.81,108.12,103.13Zm92-35.74A59.94,59.94,0,0,1,195,63.27c-7.05-7.53-15.57-7.87-25.2-6.49q-27,3.84-54.29,6c-6.62.51-9.22,2.48-8.11,9,.31,1.84.32,3.75.51,6.29Zm-92.28-17.1,52-4.54c-17.15-4.09-33.6-11.69-52-9.2ZM217.39,110.8c-.17-3.88-.31-7-.46-10.5l-84,9.41.07,1.09ZM95.44,131.88c-10.16,1.08-14.77,6.71-14.2,16.53.54,9.57,5.2,14.46,14.2,14.5Zm43.1,97.41c-1.72,5.67-.15,7.9,5.07,7.49,3.07-.24,6.16,0,9.24,0h33.6v-7.45Z"/><path class="cls-2" d="M210,122.33h6.88v90.1h-109V122c16.87,0,33.34-.1,49.8.23,1.16,0,2.87,3.1,3.28,5,1.71,7.67,2.12,15.74,4.67,23.08,3.45,9.88,11.36,14.33,20.94,13.74,11-.68,17.21-5.45,19.84-16.77C208.23,139.41,208.74,131.26,210,122.33Zm-55.3,81.16V132.76H114.86V142h31.28v61.5ZM135.8,146.11H119.23L127,155Z"/><path class="cls-2" d="M108.12,103.13c-1.35-11.32-1.36-11.33,8.9-12.59q41.54-5.12,83.09-10.19C209.7,79.19,210.64,80,213,90.49Z"/><path class="cls-2" d="M200.09,67.39,107.93,78c-.19-2.54-.2-4.45-.51-6.29-1.11-6.52,1.49-8.49,8.11-9q27.22-2.1,54.29-6c9.63-1.38,18.15-1,25.2,6.49A59.94,59.94,0,0,0,200.09,67.39Z"/><path class="cls-2" d="M107.81,50.29V36.55c18.39-2.49,34.84,5.11,52,9.2Z"/><path class="cls-2" d="M217.39,110.8H133l-.07-1.09,84-9.41C217.08,103.75,217.22,106.92,217.39,110.8Z"/><path class="cls-2" d="M95.44,131.88v31c-9,0-13.66-4.93-14.2-14.5C80.67,138.59,85.28,133,95.44,131.88Z"/><path class="cls-2" d="M138.54,229.29h47.91v7.45h-33.6c-3.08,0-6.17-.2-9.24,0C138.39,237.19,136.82,235,138.54,229.29Z"/><path d="M154.67,203.49h-8.53V142H114.86v-9.23h39.81Z"/><path d="M135.8,146.11,127,155l-7.74-8.88Z"/></svg>