<svg id="Layer_1" data-name="Layer 1" xmlns="http://www.w3.org/2000/svg" viewBox="0 0 154.83 248.98"><defs><style>.cls-1{fill:#fff;}</style></defs><path d="M25.68,0C54.25.3,81.93,2.64,108,13.78c17.71,7.58,33,18.4,41.66,36.58,4.3,9,5.19,18.68,5.15,28.57-.11,36,.24,72.07-.1,108.1-.36,37.44-35.1,66.08-72.26,61.46-26.83-3.34-50.9-25.67-55.79-53.36a80.91,80.91,0,0,1-.75-13.41q-.16-16.2,0-32.4c0-3.11-.55-4.65-4.25-5.11C9.19,142.67-.16,130.93,0,117.77c.15-11.89,10-23,22.05-24.48,3.63-.43,3.73-2.3,3.72-5q-.11-40.88-.09-81.75C25.67,4.39,25.68,2.26,25.68,0ZM143.1,182.22a11,11,0,0,0,.61-2.1q0-41.37,0-82.72c0-2.73-.83-3.94-3.73-3.81-2.58.12-4.26.34-4.55,3.68a186.06,186.06,0,0,1-3,23.11c-1.64,7.58-6.89,12.4-14.68,13.78-8.54,1.51-16.2.1-21.62-7.57-6-8.42-7.08-18.13-7.19-28,0-3.56-.79-5-4.66-5-14.45.2-28.9.19-43.35.06-3.37,0-4.21,1.25-4.19,4.41q.18,39.87.08,79.74c0,3.45.89,4.55,4.47,4.52,20.59-.18,41.18-.11,61.77-.12ZM37.12,75.54,139.72,63c-.36-1.23-.56-2.18-.91-3.07-1.74-4.31-2.95-7.88-9.64-6.94-26.27,3.68-52.66,6.45-79,9.6-4.38.52-8.73,1.24-13.05,1.86Zm-.34-24.39,88.67-10.3c-2.35-3-5.18-4.72-7.58-6.87-4.07-3.66-8.31-5.41-14-4-4.13,1.06-8.53,1.12-12.81,1.57-17,1.77-33.95,3.47-50.91,5.37-1.22.14-3.15,1.64-3.26,2.67C36.53,43.19,36.78,46.81,36.78,51.15ZM83.25,223.73a86.31,86.31,0,0,0,9.36-1.29c16.93-4,28.86-15,38.94-28.36,1.09-1.43.71-4,1-6-1.89.37-4.07.24-5.61,1.18-14.08,8.62-28.92,15.06-45.76,14.61-7.9-.21-15.75-2.07-23.66-2.66-2.67-.2-5.45,1.18-8.18,1.84,1.06,2.76,2.08,5.54,3.23,8.26.23.56.91.94,1.43,1.35C62.13,219.19,71.34,222.94,83.25,223.73ZM58.75,82.36l0,.94c1,.06,2,.15,3,.15q36.57,0,73.14,0c9.46,0,9.47,0,8.65-9.47,0-.28-.34-.54-.75-1.13ZM88.66,19.62,88.53,19c-5.26-1.31-10.47-3-15.81-3.87C62.18,13.33,51.58,11.85,41,10.56c-1.27-.15-3.83,1.5-4,2.6-.54,3.33-.2,6.81-.2,11ZM25.35,103.71c-9.55,0-14.6,6.23-13.89,16.29.66,9.24,6.05,14.6,13.89,13.63Zm49.2,92.7,25.68,1.84V186.11H74.55Z"/><path class="cls-1" d="M143.1,182.22h-40c-20.59,0-41.18-.06-61.77.12-3.58,0-4.49-1.07-4.47-4.52Q37,138,36.77,98.08c0-3.16.82-4.44,4.19-4.41,14.45.13,28.9.14,43.35-.06,3.87,0,4.61,1.43,4.66,5,.11,9.86,1.23,19.57,7.19,28,5.42,7.67,13.08,9.08,21.62,7.57,7.79-1.38,13-6.2,14.68-13.78a186.06,186.06,0,0,0,3-23.11c.29-3.34,2-3.56,4.55-3.68,2.9-.13,3.73,1.08,3.73,3.81q-.08,41.35,0,82.72A11,11,0,0,1,143.1,182.22Zm-60.37-9.13V104.37h-39c-.92,8.73-.92,8.72,7.1,8.72,7.59,0,15.18,0,23.4,0v60ZM48,116.82c2.4,3,4,5.35,5.92,7.22a3.74,3.74,0,0,0,3.64.1,93.08,93.08,0,0,0,7-7.32Z"/><path class="cls-1" d="M37.12,75.54V64.47c4.32-.62,8.67-1.34,13.05-1.86,26.34-3.15,52.73-5.92,79-9.6,6.69-.94,7.9,2.63,9.64,6.94.35.89.55,1.84.91,3.07Z"/><path class="cls-1" d="M36.78,51.15c0-4.34-.25-8,.16-11.52.11-1,2-2.53,3.26-2.67,17-1.9,33.94-3.6,50.91-5.37,4.28-.45,8.68-.51,12.81-1.57,5.64-1.45,9.88.3,14,4,2.4,2.15,5.23,3.83,7.58,6.87Z"/><path class="cls-1" d="M83.25,223.73c-11.91-.79-21.12-4.54-29.24-11.06-.52-.41-1.2-.79-1.43-1.35-1.15-2.72-2.17-5.5-3.23-8.26,2.73-.66,5.51-2,8.18-1.84,7.91.59,15.76,2.45,23.66,2.66,16.84.45,31.68-6,45.76-14.61,1.54-.94,3.72-.81,5.61-1.18-.3,2,.08,4.56-1,6-10.08,13.37-22,24.39-38.94,28.36A86.31,86.31,0,0,1,83.25,223.73Zm31-20.52c-18,7.72-36.51,8.81-55.51,4.73C77,223.06,98.71,218.94,114.22,203.21Z"/><path class="cls-1" d="M58.75,82.36l84-9.56c.41.59.72.85.75,1.13.82,9.43.81,9.46-8.65,9.47q-36.57.06-73.14,0c-1,0-2-.09-3-.15Z"/><path class="cls-1" d="M88.66,19.62l-51.9,4.49c0-4.14-.34-7.62.2-10.95.17-1.1,2.73-2.75,4-2.6,10.62,1.29,21.22,2.77,31.76,4.55C78.06,16,83.27,17.67,88.53,19Z"/><path class="cls-1" d="M25.35,103.71v29.92c-7.84,1-13.23-4.39-13.89-13.63C10.75,109.94,15.8,103.74,25.35,103.71Z"/><path class="cls-1" d="M74.55,196.41v-10.3h25.68v12.14Z"/><path d="M82.73,173.09H74.26v-60c-8.22,0-15.81,0-23.4,0-8,0-8,0-7.1-8.72h39Z"/><path d="M48,116.82H64.63a93.08,93.08,0,0,1-7,7.32A3.74,3.74,0,0,1,54,124C52,122.17,50.44,119.84,48,116.82Z"/><path d="M114.22,203.21C98.71,218.94,77,223.06,58.71,207.94,77.71,212,96.26,210.93,114.22,203.21Z"/></svg>