<svg id="Layer_1" data-name="Layer 1" xmlns="http://www.w3.org/2000/svg" viewBox="0 0 307.26 307.26"><defs><style>.cls-1{fill:#aa001c;stroke:#000;}.cls-2{fill:#fff;}</style></defs><circle class="cls-1" cx="153.63" cy="153.63" r="153.13"/><path d="M101.89,24.1c28.57.3,56.25,2.65,82.29,13.79,17.72,7.58,33,18.39,41.67,36.57C230.14,83.51,231,93.14,231,103c-.12,36,.24,72.08-.11,108.11-.36,37.44-35.1,66.07-72.26,61.45-26.83-3.34-50.9-25.66-55.79-53.36a83.13,83.13,0,0,1-.75-13.41q-.15-16.2,0-32.4c0-3.11-.55-4.65-4.24-5.1C85.4,166.77,76.06,155,76.22,141.87c.14-11.89,10-23,22-24.47,3.63-.44,3.73-2.31,3.72-5q-.09-40.87-.09-81.75ZM219.31,206.32a10.32,10.32,0,0,0,.62-2.1c0-27.57,0-55.15,0-82.72,0-2.73-.82-3.94-3.72-3.8-2.59.11-4.26.33-4.56,3.68a184.27,184.27,0,0,1-3,23.1c-1.64,7.58-6.88,12.41-14.68,13.78-8.54,1.51-16.2.1-21.62-7.57-6-8.42-7.07-18.12-7.19-28,0-3.57-.79-5-4.65-5-14.45.2-28.91.19-43.36.07-3.37,0-4.2,1.25-4.19,4.4q.19,39.87.08,79.74c0,3.45.9,4.55,4.48,4.52,20.59-.18,41.18-.11,61.77-.12Zm-106-106.68L215.93,87.12c-.36-1.23-.55-2.18-.91-3.06-1.74-4.32-2.94-7.88-9.64-7-26.26,3.68-52.65,6.45-79,9.6-4.38.53-8.74,1.24-13,1.86ZM113,75.26,201.67,65c-2.35-3-5.19-4.71-7.59-6.87-4.07-3.66-8.31-5.41-14-4-4.13,1.06-8.52,1.12-12.81,1.57-17,1.77-33.95,3.47-50.9,5.38-1.23.13-3.15,1.63-3.27,2.67C112.74,67.29,113,70.92,113,75.26Zm46.48,172.57a86.31,86.31,0,0,0,9.36-1.29c16.93-4,28.86-15,38.94-28.35,1.08-1.44.7-4,1-6-1.89.37-4.08.24-5.62,1.18C189.08,222,174.24,228.43,157.41,228c-7.91-.21-15.75-2.06-23.66-2.66-2.67-.2-5.46,1.18-8.19,1.84,1.06,2.76,2.08,5.54,3.23,8.27.23.55.92.93,1.43,1.35C138.34,243.29,147.55,247,159.47,247.83ZM135,106.47l0,.94c1,0,2,.15,2.94.15q36.57,0,73.14,0c9.47,0,9.47,0,8.65-9.47,0-.29-.34-.54-.74-1.14Zm29.92-62.75-.13-.64c-5.27-1.31-10.48-3-15.82-3.86-10.54-1.79-21.14-3.27-31.75-4.55-1.28-.16-3.83,1.49-4,2.6-.53,3.33-.19,6.8-.19,10.94Zm-63.31,84.09C92,127.84,87,134,87.68,144.1c.65,9.25,6,14.6,13.89,13.63Zm49.2,92.7,25.67,1.84V210.21H150.77Z"/><path class="cls-2" d="M219.31,206.32h-40c-20.59,0-41.18-.06-61.77.12-3.58,0-4.49-1.07-4.48-4.52q.14-39.87-.08-79.74c0-3.15.82-4.43,4.19-4.4,14.45.12,28.91.13,43.36-.07,3.86,0,4.61,1.43,4.65,5,.12,9.86,1.24,19.56,7.19,28,5.42,7.67,13.08,9.08,21.62,7.57,7.8-1.37,13-6.2,14.68-13.78a184.27,184.27,0,0,0,3-23.1c.3-3.35,2-3.57,4.56-3.68,2.9-.14,3.73,1.07,3.72,3.8,0,27.57,0,55.15,0,82.72A10.32,10.32,0,0,1,219.31,206.32Zm-60.37-9.13V128.48H120c-.92,8.72-.92,8.72,7.1,8.71h23.4v60Zm-34.69-56.26c2.41,3,3.95,5.34,5.93,7.21a3.72,3.72,0,0,0,3.63.11,91.24,91.24,0,0,0,7-7.32Z"/><path class="cls-2" d="M113.34,99.64V88.57c4.31-.62,8.67-1.33,13-1.86,26.34-3.15,52.73-5.92,79-9.6,6.7-.93,7.9,2.63,9.64,7,.36.88.55,1.83.91,3.06Z"/><path class="cls-2" d="M113,75.26c0-4.34-.25-8,.16-11.52.12-1,2-2.54,3.27-2.67,17-1.91,33.93-3.61,50.9-5.38,4.29-.45,8.68-.51,12.81-1.57,5.64-1.45,9.88.3,14,4,2.4,2.16,5.24,3.83,7.59,6.87Z"/><path class="cls-2" d="M159.47,247.83c-11.92-.79-21.13-4.54-29.25-11.05-.51-.42-1.2-.8-1.43-1.35-1.15-2.73-2.17-5.51-3.23-8.27,2.73-.66,5.52-2,8.19-1.84,7.91.6,15.75,2.45,23.66,2.66,16.83.45,31.67-6,45.75-14.61,1.54-.94,3.73-.81,5.62-1.18-.31,2,.07,4.56-1,6-10.08,13.37-22,24.38-38.94,28.35A86.31,86.31,0,0,1,159.47,247.83Zm31-20.51c-18,7.72-36.52,8.8-55.52,4.72C153.18,247.17,174.92,243,190.44,227.32Z"/><path class="cls-2" d="M135,106.47l84-9.57c.4.6.72.85.74,1.14.82,9.43.82,9.45-8.65,9.47q-36.57,0-73.14,0c-1,0-2-.1-2.94-.15Z"/><path class="cls-2" d="M164.88,43.72,113,48.21c0-4.14-.34-7.61.19-10.94.18-1.11,2.73-2.76,4-2.6,10.61,1.28,21.21,2.76,31.75,4.55,5.34.9,10.55,2.55,15.82,3.86Z"/><path class="cls-2" d="M101.57,127.81v29.92c-7.84,1-13.24-4.38-13.89-13.63C87,134,92,127.84,101.57,127.81Z"/><path class="cls-2" d="M150.77,220.51v-10.3h25.67v12.14Z"/><path d="M158.94,197.19h-8.46v-60h-23.4c-8,0-8,0-7.1-8.71h39Z"/><path d="M124.25,140.93h16.59a91.24,91.24,0,0,1-7,7.32,3.72,3.72,0,0,1-3.63-.11C128.2,146.27,126.66,143.94,124.25,140.93Z"/><path d="M190.44,227.32C174.92,243,153.18,247.17,134.92,232,153.92,236.12,172.47,235,190.44,227.32Z"/></svg>