<svg id="Layer_1" data-name="Layer 1" xmlns="http://www.w3.org/2000/svg" viewBox="0 0 159.75 256.63"><defs><style>.cls-1{fill:#fff;}</style></defs><path d="M26.86,0c32.32.47,63.32,3,91.88,17.68,19.92,10.26,35.43,24.52,39.93,47.71a73.65,73.65,0,0,1,1,13.78c.08,36.54.17,73.07,0,109.6-.17,38-26.69,65.67-64.75,67.77-32.79,1.82-65.4-26.47-67.69-59.37-1-13.8-.64-27.7-.61-41.56,0-4.32-.75-6.35-5.73-7.38C8.54,145.66-.19,134,0,121.92S8.77,98.78,20.85,96.26c5-1,5.77-3,5.75-7.36-.14-27.29-.08-54.58-.06-81.86C26.54,4.88,26.73,2.73,26.86,0ZM140.67,97c-1.22,8.93-1.74,17.08-3.56,24.93-2.63,11.31-8.86,16.08-19.84,16.76-9.58.59-17.5-3.86-20.94-13.74-2.56-7.34-3-15.41-4.67-23.07-.42-1.89-2.12-5-3.29-5-16.46-.33-32.92-.23-49.8-.23v90.44h109V97ZM38.82,77.81,143.69,65.17c-2.35-10.5-3.29-11.3-12.88-10.14q-41.55,5-83.09,10.19C37.47,66.48,37.47,66.49,38.82,77.81Zm92-35.74A60.82,60.82,0,0,1,125.73,38c-7-7.53-15.58-7.87-25.21-6.5-18,2.56-36.14,4.57-54.28,6-6.63.51-9.23,2.48-8.12,9,.32,1.85.32,3.75.52,6.29ZM38.51,25l52-4.54c-17.16-4.08-33.61-11.69-52-9.2ZM148.09,85.48c-.17-3.88-.31-7-.46-10.5l-84,9.41.08,1.09ZM26.15,106.57c-10.17,1.07-14.77,6.7-14.21,16.52.55,9.57,5.21,14.46,14.21,14.51ZM69.25,204c-1.72,5.66-.16,7.89,5.07,7.48,3.06-.24,6.16,0,9.24,0h33.6V204Z"/><path class="cls-1" d="M140.67,97h6.88v90.1h-109V96.67c16.88,0,33.34-.1,49.8.23,1.17,0,2.87,3.1,3.29,5,1.7,7.66,2.11,15.73,4.67,23.07,3.44,9.88,11.36,14.33,20.94,13.74,11-.68,17.21-5.45,19.84-16.76C138.93,114.09,139.45,105.94,140.67,97ZM85.38,178.17V107.44H45.57v9.23H76.84v61.5ZM66.5,120.79H49.93l7.75,8.88Z"/><path class="cls-1" d="M38.82,77.81c-1.35-11.32-1.35-11.33,8.9-12.59Q89.27,60.12,130.81,55c9.59-1.16,10.53-.36,12.88,10.14Z"/><path class="cls-1" d="M130.8,42.07,38.64,52.72c-.2-2.54-.2-4.44-.52-6.29-1.11-6.52,1.49-8.49,8.12-9,18.14-1.4,36.27-3.41,54.28-6,9.63-1.37,18.16-1,25.21,6.5A60.82,60.82,0,0,0,130.8,42.07Z"/><path class="cls-1" d="M38.51,25V11.23c18.39-2.49,34.84,5.12,52,9.2Z"/><path class="cls-1" d="M148.09,85.48H63.69l-.08-1.09,84-9.41C147.78,78.43,147.92,81.6,148.09,85.48Z"/><path class="cls-1" d="M26.15,106.57v31c-9,0-13.66-4.94-14.21-14.51C11.38,113.27,16,107.64,26.15,106.57Z"/><path class="cls-1" d="M69.25,204h47.91v7.44H83.56c-3.08,0-6.18-.2-9.24,0C69.09,211.87,67.53,209.64,69.25,204Z"/><path d="M85.38,178.17H76.84v-61.5H45.57v-9.23H85.38Z"/><path d="M66.5,120.79l-8.82,8.88-7.75-8.88Z"/></svg>